<mxfile host="65bd71144e">
    <diagram id="n_FQf2AKHFINR0Hc34nD" name="Page-1">
        <mxGraphModel dx="566" dy="382" grid="1" gridSize="10" guides="1" tooltips="1" connect="1" arrows="1" fold="1" page="1" pageScale="1" pageWidth="1654" pageHeight="1169" math="1" shadow="0">
            <root>
                <mxCell id="0"/>
                <mxCell id="1" parent="0"/>
                <mxCell id="3" style="edgeStyle=orthogonalEdgeStyle;rounded=0;orthogonalLoop=1;jettySize=auto;html=1;exitX=1;exitY=0;exitDx=0;exitDy=0;exitPerimeter=0;entryX=0.063;entryY=0.469;entryDx=0;entryDy=0;entryPerimeter=0;strokeWidth=2;fontSize=20;" parent="1" source="19" target="41" edge="1">
                    <mxGeometry relative="1" as="geometry">
                        <Array as="points">
                            <mxPoint x="970" y="672"/>
                        </Array>
                    </mxGeometry>
                </mxCell>
                <mxCell id="5" value="&lt;span style=&quot;font-size: 20px;&quot;&gt;PC&lt;/span&gt;" style="ellipse;whiteSpace=wrap;html=1;fontSize=20;" parent="1" vertex="1">
                    <mxGeometry x="765" y="130" width="40" height="40" as="geometry"/>
                </mxCell>
                <mxCell id="6" value="" style="verticalLabelPosition=bottom;align=center;html=1;verticalAlign=top;pointerEvents=1;dashed=0;shape=mxgraph.pid2valves.valve;valveType=ball;rotation=-45;fontSize=20;" parent="1" vertex="1">
                    <mxGeometry x="735" y="230" width="30" height="20" as="geometry"/>
                </mxCell>
                <mxCell id="7" style="edgeStyle=orthogonalEdgeStyle;rounded=0;orthogonalLoop=1;jettySize=auto;html=1;strokeWidth=2;dashed=1;fillColor=#a20025;strokeColor=#FF0000;exitX=0.5;exitY=0;exitDx=0;exitDy=0;exitPerimeter=0;entryX=1;entryY=0.5;entryDx=0;entryDy=0;fontSize=20;" parent="1" source="17" target="5" edge="1">
                    <mxGeometry relative="1" as="geometry">
                        <mxPoint x="930" y="150" as="targetPoint"/>
                    </mxGeometry>
                </mxCell>
                <mxCell id="8" style="edgeStyle=orthogonalEdgeStyle;rounded=0;orthogonalLoop=1;jettySize=auto;html=1;entryX=0.554;entryY=0.264;entryDx=0;entryDy=0;entryPerimeter=0;strokeWidth=2;dashed=1;fillColor=#a20025;strokeColor=#FF0000;exitX=0;exitY=0.5;exitDx=0;exitDy=0;fontSize=20;" parent="1" source="5" target="6" edge="1">
                    <mxGeometry relative="1" as="geometry">
                        <Array as="points">
                            <mxPoint x="730" y="150"/>
                            <mxPoint x="730" y="235"/>
                        </Array>
                        <mxPoint x="850" y="120" as="sourcePoint"/>
                    </mxGeometry>
                </mxCell>
                <mxCell id="13" style="edgeStyle=orthogonalEdgeStyle;rounded=0;orthogonalLoop=1;jettySize=auto;html=1;entryX=0;entryY=0.5;entryDx=0;entryDy=0;dashed=1;strokeColor=#FF0000;strokeWidth=2;fontSize=20;" parent="1" source="14" target="51" edge="1">
                    <mxGeometry relative="1" as="geometry">
                        <Array as="points">
                            <mxPoint x="880" y="620"/>
                            <mxPoint x="880" y="620"/>
                        </Array>
                    </mxGeometry>
                </mxCell>
                <mxCell id="14" value="" style="verticalLabelPosition=bottom;outlineConnect=0;align=center;dashed=0;html=1;verticalAlign=top;shape=mxgraph.pid2misc.column;columnType=tray;fontSize=20;" parent="1" vertex="1">
                    <mxGeometry x="578" y="352" width="110" height="300" as="geometry"/>
                </mxCell>
                <mxCell id="15" style="edgeStyle=orthogonalEdgeStyle;rounded=0;orthogonalLoop=1;jettySize=auto;html=1;strokeWidth=2;fontSize=20;" parent="1" target="19" edge="1">
                    <mxGeometry relative="1" as="geometry">
                        <Array as="points">
                            <mxPoint x="858" y="692"/>
                            <mxPoint x="858" y="692"/>
                        </Array>
                        <mxPoint x="818" y="692" as="sourcePoint"/>
                    </mxGeometry>
                </mxCell>
                <mxCell id="16" style="edgeStyle=orthogonalEdgeStyle;rounded=0;orthogonalLoop=1;jettySize=auto;html=1;entryX=0.5;entryY=0;entryDx=0;entryDy=0;strokeWidth=2;dashed=1;fillColor=#a20025;strokeColor=#FF0000;fontSize=20;" parent="1" source="17" target="38" edge="1">
                    <mxGeometry relative="1" as="geometry"/>
                </mxCell>
                <mxCell id="17" value="" style="shape=mxgraph.pid.vessels.pressurized_vessel;html=1;pointerEvents=1;align=center;verticalLabelPosition=bottom;verticalAlign=top;dashed=0;fontSize=20;" parent="1" vertex="1">
                    <mxGeometry x="790" y="250" width="80" height="60" as="geometry"/>
                </mxCell>
                <mxCell id="18" style="edgeStyle=orthogonalEdgeStyle;rounded=0;orthogonalLoop=1;jettySize=auto;html=1;entryX=0.124;entryY=0.5;entryDx=0;entryDy=0;entryPerimeter=0;fontSize=20;" parent="1" source="14" target="32" edge="1">
                    <mxGeometry relative="1" as="geometry">
                        <mxPoint x="680" y="240" as="targetPoint"/>
                        <Array as="points">
                            <mxPoint x="633" y="280"/>
                        </Array>
                    </mxGeometry>
                </mxCell>
                <mxCell id="19" value="" style="verticalLabelPosition=bottom;outlineConnect=0;align=center;dashed=0;html=1;verticalAlign=top;shape=mxgraph.pid.compressors.centrifugal_compressor;fontSize=20;" parent="1" vertex="1">
                    <mxGeometry x="878" y="672" width="40" height="40" as="geometry"/>
                </mxCell>
                <mxCell id="67" style="edgeStyle=orthogonalEdgeStyle;rounded=0;html=1;entryX=0.5;entryY=0;entryDx=0;entryDy=0;strokeColor=#FF0000;strokeWidth=2;dashed=1;fontSize=20;" parent="1" target="30" edge="1">
                    <mxGeometry relative="1" as="geometry">
                        <mxPoint x="400" y="502" as="sourcePoint"/>
                        <Array as="points">
                            <mxPoint x="400" y="410"/>
                            <mxPoint x="450" y="410"/>
                        </Array>
                    </mxGeometry>
                </mxCell>
                <mxCell id="21" value="" style="verticalLabelPosition=bottom;align=center;html=1;verticalAlign=top;pointerEvents=1;dashed=0;shape=mxgraph.pid2valves.valve;valveType=ball;fontSize=20;" parent="1" vertex="1">
                    <mxGeometry x="435" y="492" width="30" height="20" as="geometry"/>
                </mxCell>
                <mxCell id="22" value="" style="shape=mxgraph.pid.heat_exchangers.reboiler;html=1;pointerEvents=1;align=center;verticalLabelPosition=bottom;verticalAlign=top;dashed=0;fontSize=20;" parent="1" vertex="1">
                    <mxGeometry x="740" y="667" width="110" height="50" as="geometry"/>
                </mxCell>
                <mxCell id="23" value="" style="verticalLabelPosition=bottom;outlineConnect=0;align=center;dashed=0;html=1;verticalAlign=top;shape=mxgraph.pid.compressors.centrifugal_compressor;rotation=90;fontSize=20;" parent="1" vertex="1">
                    <mxGeometry x="820" y="332" width="30" height="30" as="geometry"/>
                </mxCell>
                <mxCell id="24" value="" style="verticalLabelPosition=bottom;align=center;html=1;verticalAlign=top;pointerEvents=1;dashed=0;shape=mxgraph.pid2valves.valve;valveType=ball;fontSize=20;" parent="1" vertex="1">
                    <mxGeometry x="727" y="362" width="30" height="20" as="geometry"/>
                </mxCell>
                <mxCell id="58" style="edgeStyle=orthogonalEdgeStyle;html=1;strokeColor=default;strokeWidth=2;fontSize=20;" parent="1" source="25" edge="1">
                    <mxGeometry relative="1" as="geometry">
                        <mxPoint x="970" y="372" as="targetPoint"/>
                    </mxGeometry>
                </mxCell>
                <mxCell id="25" value="" style="verticalLabelPosition=bottom;align=center;html=1;verticalAlign=top;pointerEvents=1;dashed=0;shape=mxgraph.pid2valves.valve;valveType=ball;fontSize=20;" parent="1" vertex="1">
                    <mxGeometry x="888" y="362" width="30" height="20" as="geometry"/>
                </mxCell>
                <mxCell id="26" value="" style="endArrow=classic;html=1;rounded=0;exitX=-0.014;exitY=0.443;exitDx=0;exitDy=0;exitPerimeter=0;fontSize=20;" parent="1" source="24" edge="1">
                    <mxGeometry width="50" height="50" relative="1" as="geometry">
                        <mxPoint x="715.3" y="371.1500000000001" as="sourcePoint"/>
                        <mxPoint x="688" y="370.8600000000001" as="targetPoint"/>
                    </mxGeometry>
                </mxCell>
                <mxCell id="29" style="edgeStyle=orthogonalEdgeStyle;rounded=0;orthogonalLoop=1;jettySize=auto;html=1;entryX=0.01;entryY=0.5;entryDx=0;entryDy=0;entryPerimeter=0;strokeWidth=2;fontSize=20;" parent="1" target="23" edge="1">
                    <mxGeometry relative="1" as="geometry">
                        <mxPoint x="835" y="312" as="sourcePoint"/>
                        <Array as="points">
                            <mxPoint x="835" y="322"/>
                            <mxPoint x="835" y="322"/>
                        </Array>
                    </mxGeometry>
                </mxCell>
                <mxCell id="78" style="edgeStyle=orthogonalEdgeStyle;rounded=0;html=1;entryX=0.5;entryY=1;entryDx=0;entryDy=0;dashed=1;strokeColor=#FF0000;strokeWidth=2;fontSize=20;" parent="1" target="69" edge="1">
                    <mxGeometry relative="1" as="geometry">
                        <mxPoint x="490" y="500" as="sourcePoint"/>
                        <Array as="points">
                            <mxPoint x="490" y="500"/>
                            <mxPoint x="490" y="200"/>
                            <mxPoint x="540" y="200"/>
                        </Array>
                    </mxGeometry>
                </mxCell>
                <mxCell id="30" value="&lt;font style=&quot;font-size: 20px;&quot;&gt;FC&lt;/font&gt;" style="ellipse;whiteSpace=wrap;html=1;fontSize=20;" parent="1" vertex="1">
                    <mxGeometry x="430" y="430" width="40" height="40" as="geometry"/>
                </mxCell>
                <mxCell id="32" value="" style="shape=mxgraph.pid.heat_exchangers.condenser;html=1;pointerEvents=1;align=center;verticalLabelPosition=bottom;verticalAlign=top;dashed=0;movable=1;resizable=1;rotatable=1;deletable=1;editable=1;locked=0;connectable=1;fontSize=20;" parent="1" vertex="1">
                    <mxGeometry x="680" y="250" width="60" height="60" as="geometry"/>
                </mxCell>
                <mxCell id="33" style="edgeStyle=orthogonalEdgeStyle;rounded=0;orthogonalLoop=1;jettySize=auto;html=1;entryX=-0.021;entryY=0.494;entryDx=0;entryDy=0;entryPerimeter=0;strokeWidth=2;fontSize=20;" parent="1" source="32" target="17" edge="1">
                    <mxGeometry relative="1" as="geometry"/>
                </mxCell>
                <mxCell id="34" value="&lt;font style=&quot;font-size: 20px;&quot;&gt;FC&lt;/font&gt;" style="ellipse;whiteSpace=wrap;html=1;fontSize=20;" parent="1" vertex="1">
                    <mxGeometry x="530" y="292" width="40" height="40" as="geometry"/>
                </mxCell>
                <mxCell id="35" value="" style="shape=mxgraph.pid.heat_exchangers.heater;html=1;pointerEvents=1;align=center;verticalLabelPosition=bottom;verticalAlign=top;dashed=0;fontSize=20;" parent="1" vertex="1">
                    <mxGeometry x="650" y="672" width="60" height="60" as="geometry"/>
                </mxCell>
                <mxCell id="36" value="&lt;font style=&quot;font-size: 20px;&quot;&gt;FC&lt;/font&gt;" style="ellipse;whiteSpace=wrap;html=1;fontSize=20;" parent="1" vertex="1">
                    <mxGeometry x="623" y="790" width="40" height="40" as="geometry"/>
                </mxCell>
                <mxCell id="37" value="" style="verticalLabelPosition=bottom;align=center;html=1;verticalAlign=top;pointerEvents=1;dashed=0;shape=mxgraph.pid2valves.valve;valveType=ball;rotation=315;fontSize=20;" parent="1" vertex="1">
                    <mxGeometry x="623" y="734" width="30" height="20" as="geometry"/>
                </mxCell>
                <mxCell id="38" value="&lt;span style=&quot;font-size: 20px;&quot;&gt;LC&lt;/span&gt;" style="ellipse;whiteSpace=wrap;html=1;fontSize=20;" parent="1" vertex="1">
                    <mxGeometry x="883" y="300" width="40" height="40" as="geometry"/>
                </mxCell>
                <mxCell id="39" style="edgeStyle=orthogonalEdgeStyle;rounded=0;orthogonalLoop=1;jettySize=auto;html=1;entryX=0.507;entryY=0.26;entryDx=0;entryDy=0;entryPerimeter=0;strokeWidth=2;dashed=1;fillColor=#a20025;strokeColor=#FF0000;fontSize=20;" parent="1" source="38" target="25" edge="1">
                    <mxGeometry relative="1" as="geometry"/>
                </mxCell>
                <mxCell id="40" style="edgeStyle=orthogonalEdgeStyle;rounded=0;orthogonalLoop=1;jettySize=auto;html=1;entryX=0.513;entryY=0.2;entryDx=0;entryDy=0;entryPerimeter=0;strokeColor=#FF0000;strokeWidth=2;dashed=1;fontSize=20;" parent="1" source="34" target="24" edge="1">
                    <mxGeometry relative="1" as="geometry"/>
                </mxCell>
                <mxCell id="57" style="edgeStyle=orthogonalEdgeStyle;html=1;strokeColor=default;strokeWidth=2;fontSize=20;" parent="1" source="41" edge="1">
                    <mxGeometry relative="1" as="geometry">
                        <mxPoint x="1017" y="670" as="targetPoint"/>
                    </mxGeometry>
                </mxCell>
                <mxCell id="41" value="" style="verticalLabelPosition=bottom;align=center;html=1;verticalAlign=top;pointerEvents=1;dashed=0;shape=mxgraph.pid2valves.valve;valveType=ball;fontSize=20;" parent="1" vertex="1">
                    <mxGeometry x="945" y="660" width="30" height="20" as="geometry"/>
                </mxCell>
                <mxCell id="45" value="" style="endArrow=classic;html=1;rounded=0;exitX=0.45;exitY=0;exitDx=0;exitDy=0;exitPerimeter=0;endSize=6;curved=0;strokeColor=default;strokeWidth=2;fontSize=20;" parent="1" source="22" edge="1">
                    <mxGeometry width="50" height="50" relative="1" as="geometry">
                        <mxPoint x="778" y="662" as="sourcePoint"/>
                        <mxPoint x="688" y="633.27" as="targetPoint"/>
                        <Array as="points">
                            <mxPoint x="790" y="632"/>
                        </Array>
                    </mxGeometry>
                </mxCell>
                <mxCell id="47" style="edgeStyle=orthogonalEdgeStyle;rounded=0;orthogonalLoop=1;jettySize=auto;html=1;entryX=0;entryY=0.682;entryDx=0;entryDy=0;entryPerimeter=0;exitX=0.876;exitY=0.5;exitDx=0;exitDy=0;exitPerimeter=0;endSize=6;curved=0;strokeWidth=2;fontSize=20;" parent="1" target="22" edge="1">
                    <mxGeometry relative="1" as="geometry">
                        <mxPoint x="728" y="830" as="targetPoint"/>
                        <mxPoint x="702.56" y="702" as="sourcePoint"/>
                        <Array as="points">
                            <mxPoint x="703" y="701"/>
                        </Array>
                    </mxGeometry>
                </mxCell>
                <mxCell id="48" style="edgeStyle=orthogonalEdgeStyle;rounded=0;orthogonalLoop=1;jettySize=auto;html=1;entryX=0.124;entryY=0.5;entryDx=0;entryDy=0;entryPerimeter=0;endSize=6;curved=0;strokeWidth=2;fontSize=20;" parent="1" source="14" edge="1">
                    <mxGeometry relative="1" as="geometry">
                        <mxPoint x="657.44" y="702" as="targetPoint"/>
                        <Array as="points">
                            <mxPoint x="633" y="702"/>
                        </Array>
                    </mxGeometry>
                </mxCell>
                <mxCell id="49" style="edgeStyle=orthogonalEdgeStyle;rounded=0;orthogonalLoop=1;jettySize=auto;html=1;dashed=1;endSize=6;curved=0;strokeColor=#FF0000;strokeWidth=2;exitX=0.5;exitY=0;exitDx=0;exitDy=0;entryX=0.476;entryY=0.889;entryDx=0;entryDy=0;entryPerimeter=0;fontSize=20;" parent="1" source="36" target="37" edge="1">
                    <mxGeometry relative="1" as="geometry">
                        <mxPoint x="643" y="790" as="targetPoint"/>
                    </mxGeometry>
                </mxCell>
                <mxCell id="50" style="edgeStyle=orthogonalEdgeStyle;rounded=0;orthogonalLoop=1;jettySize=auto;html=1;entryX=0.507;entryY=0.24;entryDx=0;entryDy=0;entryPerimeter=0;dashed=1;endSize=6;curved=0;strokeColor=#FF0000;strokeWidth=2;fontSize=20;" parent="1" source="30" target="21" edge="1">
                    <mxGeometry relative="1" as="geometry"/>
                </mxCell>
                <mxCell id="59" style="edgeStyle=orthogonalEdgeStyle;html=1;dashed=1;strokeColor=#FF0000;strokeWidth=2;fontSize=20;" parent="1" source="51" target="41" edge="1">
                    <mxGeometry relative="1" as="geometry"/>
                </mxCell>
                <mxCell id="51" value="&lt;font style=&quot;font-size: 20px;&quot;&gt;LC&lt;/font&gt;" style="ellipse;whiteSpace=wrap;html=1;fontSize=20;" parent="1" vertex="1">
                    <mxGeometry x="940" y="600" width="40" height="40" as="geometry"/>
                </mxCell>
                <mxCell id="54" value="" style="endArrow=classic;html=1;rounded=0;exitX=-0.014;exitY=0.443;exitDx=0;exitDy=0;exitPerimeter=0;strokeWidth=2;fontSize=20;" parent="1" edge="1">
                    <mxGeometry width="50" height="50" relative="1" as="geometry">
                        <mxPoint x="726.5799999999999" y="370.83000000000015" as="sourcePoint"/>
                        <mxPoint x="688" y="370.83000000000015" as="targetPoint"/>
                    </mxGeometry>
                </mxCell>
                <mxCell id="56" style="edgeStyle=orthogonalEdgeStyle;rounded=0;orthogonalLoop=1;jettySize=auto;html=1;entryX=0.124;entryY=0.5;entryDx=0;entryDy=0;entryPerimeter=0;strokeWidth=2;fontSize=20;" parent="1" edge="1">
                    <mxGeometry relative="1" as="geometry">
                        <mxPoint x="687.44" y="279.97" as="targetPoint"/>
                        <Array as="points">
                            <mxPoint x="633" y="279.97"/>
                        </Array>
                        <mxPoint x="633.0344827586209" y="351.97" as="sourcePoint"/>
                    </mxGeometry>
                </mxCell>
                <mxCell id="2" style="edgeStyle=orthogonalEdgeStyle;rounded=0;orthogonalLoop=1;jettySize=auto;html=1;entryX=0.5;entryY=1;entryDx=0;entryDy=0;dashed=1;endSize=6;curved=0;strokeColor=#FF0000;strokeWidth=2;fontSize=20;" parent="1" target="36" edge="1">
                    <mxGeometry relative="1" as="geometry">
                        <Array as="points">
                            <mxPoint x="764" y="870"/>
                            <mxPoint x="643" y="870"/>
                        </Array>
                        <mxPoint x="764" y="633" as="sourcePoint"/>
                    </mxGeometry>
                </mxCell>
                <mxCell id="61" style="edgeStyle=orthogonalEdgeStyle;rounded=0;orthogonalLoop=1;jettySize=auto;html=1;strokeColor=#FF0000;strokeWidth=2;dashed=1;entryX=0.5;entryY=1;entryDx=0;entryDy=0;fontSize=20;" parent="1" target="34" edge="1">
                    <mxGeometry relative="1" as="geometry">
                        <mxPoint x="710" y="372" as="sourcePoint"/>
                        <mxPoint x="510" y="380" as="targetPoint"/>
                        <Array as="points">
                            <mxPoint x="710" y="410"/>
                            <mxPoint x="550" y="410"/>
                        </Array>
                    </mxGeometry>
                </mxCell>
                <mxCell id="66" style="edgeStyle=orthogonalEdgeStyle;html=1;strokeColor=default;strokeWidth=2;rounded=0;fontSize=20;" parent="1" edge="1">
                    <mxGeometry relative="1" as="geometry">
                        <mxPoint x="370" y="502" as="sourcePoint"/>
                        <mxPoint x="435" y="501.83" as="targetPoint"/>
                        <Array as="points">
                            <mxPoint x="435" y="502"/>
                        </Array>
                    </mxGeometry>
                </mxCell>
                <mxCell id="65" style="edgeStyle=orthogonalEdgeStyle;html=1;strokeColor=default;strokeWidth=2;rounded=0;fontSize=20;" parent="1" source="21" target="14" edge="1">
                    <mxGeometry relative="1" as="geometry"/>
                </mxCell>
                <mxCell id="72" style="edgeStyle=none;html=1;entryX=0;entryY=0.5;entryDx=0;entryDy=0;fontSize=20;rounded=0;dashed=1;strokeColor=#FF0000;strokeWidth=2;" parent="1" source="68" target="69" edge="1">
                    <mxGeometry relative="1" as="geometry"/>
                </mxCell>
                <mxCell id="68" value="$$\left(\frac{L}{F}\right)_S$$" style="whiteSpace=wrap;html=1;fontSize=20;strokeColor=none;" parent="1" vertex="1">
                    <mxGeometry x="400" y="115" width="60" height="50" as="geometry"/>
                </mxCell>
                <mxCell id="74" style="edgeStyle=orthogonalEdgeStyle;rounded=0;html=1;entryX=0.5;entryY=0;entryDx=0;entryDy=0;dashed=1;strokeColor=#FF0000;strokeWidth=2;fontSize=20;" parent="1" source="69" target="34" edge="1">
                    <mxGeometry relative="1" as="geometry">
                        <Array as="points">
                            <mxPoint x="590" y="140"/>
                            <mxPoint x="590" y="226"/>
                            <mxPoint x="550" y="226"/>
                        </Array>
                    </mxGeometry>
                </mxCell>
                <mxCell id="82" value="$$L_S$$" style="edgeLabel;html=1;align=center;verticalAlign=middle;resizable=0;points=[];fontSize=20;" parent="74" vertex="1" connectable="0">
                    <mxGeometry x="0.5131" relative="1" as="geometry">
                        <mxPoint x="20" y="-18" as="offset"/>
                    </mxGeometry>
                </mxCell>
                <mxCell id="69" value="&lt;span style=&quot;font-size: 20px;&quot;&gt;$$\times$$&lt;/span&gt;" style="whiteSpace=wrap;html=1;fontSize=20;fontStyle=0" parent="1" vertex="1">
                    <mxGeometry x="520" y="120" width="40" height="40" as="geometry"/>
                </mxCell>
                <mxCell id="83" style="edgeStyle=orthogonalEdgeStyle;rounded=0;html=1;entryX=0;entryY=0.5;entryDx=0;entryDy=0;dashed=1;strokeColor=#FF0000;strokeWidth=2;fontSize=20;" edge="1" parent="1" target="36">
                    <mxGeometry relative="1" as="geometry">
                        <mxPoint x="550.0000000000002" y="810" as="sourcePoint"/>
                        <mxPoint x="623" y="810" as="targetPoint"/>
                    </mxGeometry>
                </mxCell>
                <mxCell id="84" value="$$V_S$$" style="edgeLabel;html=1;align=center;verticalAlign=middle;resizable=0;points=[];fontSize=20;" vertex="1" connectable="0" parent="83">
                    <mxGeometry x="0.2111" y="-1" relative="1" as="geometry">
                        <mxPoint x="-64" y="-1" as="offset"/>
                    </mxGeometry>
                </mxCell>
                <mxCell id="87" style="edgeStyle=orthogonalEdgeStyle;rounded=0;orthogonalLoop=1;jettySize=auto;html=1;entryX=1.047;entryY=0.43;entryDx=0;entryDy=0;entryPerimeter=0;exitX=1;exitY=0;exitDx=0;exitDy=0;exitPerimeter=0;strokeWidth=2;fontSize=20;" edge="1" parent="1">
                    <mxGeometry relative="1" as="geometry">
                        <mxPoint x="758.4100000000001" y="370.6" as="targetPoint"/>
                        <mxPoint x="850" y="362" as="sourcePoint"/>
                        <Array as="points">
                            <mxPoint x="850" y="371"/>
                            <mxPoint x="758" y="371"/>
                        </Array>
                    </mxGeometry>
                </mxCell>
                <mxCell id="88" style="edgeStyle=orthogonalEdgeStyle;rounded=0;orthogonalLoop=1;jettySize=auto;html=1;exitX=1;exitY=0;exitDx=0;exitDy=0;exitPerimeter=0;strokeWidth=2;fontSize=20;entryX=-0.013;entryY=0.45;entryDx=0;entryDy=0;entryPerimeter=0;" edge="1" parent="1">
                    <mxGeometry relative="1" as="geometry">
                        <mxPoint x="887.6100000000001" y="371" as="targetPoint"/>
                        <mxPoint x="850" y="362" as="sourcePoint"/>
                        <Array as="points">
                            <mxPoint x="850" y="371"/>
                        </Array>
                    </mxGeometry>
                </mxCell>
            </root>
        </mxGraphModel>
    </diagram>
</mxfile>